<?xml version="1.0" standalone="no"?><!-- Generator: Gravit.io --><svg xmlns="http://www.w3.org/2000/svg" xmlns:xlink="http://www.w3.org/1999/xlink" style="isolation:isolate" viewBox="0 0 4000 499.639" width="4000" height="499.639"><defs><clipPath id="_clipPath_BguuNSdOHclHpxbKjxn48SSe149J4fgN"><rect width="4000" height="499.639"/></clipPath></defs><g clip-path="url(#_clipPath_BguuNSdOHclHpxbKjxn48SSe149J4fgN)"><path d=" M 251.147 249.818 L 251.147 499.639 L 0 249.818 L 251.147 0 L 251.147 249.818 Z " fill-rule="evenodd" fill="rgb(255,255,255)"/><path d=" M 499.421 250.976 L 250.177 0.946 L 251.126 0 L 499.421 0 L 749.612 0 L 499.421 250.976 Z " fill-rule="evenodd" fill="rgb(255,255,255)"/><path d=" M 748.853 249.818 L 748.853 0 L 1000 249.818 L 748.853 499.639 L 748.853 249.818 Z " fill-rule="evenodd" fill="rgb(255,255,255)"/><path d=" M 500.578 248.661 L 749.823 498.691 L 748.874 499.639 L 500.578 499.639 L 250.388 499.639 L 500.578 248.661 Z " fill-rule="evenodd" fill="rgb(255,255,255)"/><path d=" M 1267 403.2 L 1267 124.8 L 1358.2 124.8 L 1358.2 124.8 Q 1467 124.8 1467 216 L 1467 216 L 1467 216 Q 1467 261.6 1440.2 286 L 1440.2 286 L 1440.2 286 Q 1413.4 310.4 1361.8 310.4 L 1361.8 310.4 L 1310.2 310.4 L 1310.2 403.2 L 1267 403.2 L 1267 403.2 Z  M 1310.2 271.6 L 1359 271.6 L 1359 271.6 Q 1391.4 271.6 1406.2 259.2 L 1406.2 259.2 L 1406.2 259.2 Q 1421 246.8 1421 217.6 L 1421 217.6 L 1421 217.6 Q 1421 188.8 1406.4 176.6 L 1406.4 176.6 L 1406.4 176.6 Q 1391.8 164.4 1358.2 164.4 L 1358.2 164.4 L 1310.2 164.4 L 1310.2 271.6 L 1310.2 271.6 Z  M 1613 408 L 1613 408 Q 1582.2 408 1559.4 394.4 L 1559.4 394.4 L 1559.4 394.4 Q 1536.6 380.8 1524.4 356.2 L 1524.4 356.2 L 1524.4 356.2 Q 1512.2 331.6 1512.2 298.8 L 1512.2 298.8 L 1512.2 298.8 Q 1512.2 266 1524.4 241.4 L 1524.4 241.4 L 1524.4 241.4 Q 1536.6 216.8 1559.4 203.2 L 1559.4 203.2 L 1559.4 203.2 Q 1582.2 189.6 1613 189.6 L 1613 189.6 L 1613 189.6 Q 1643.8 189.6 1666.6 203.2 L 1666.6 203.2 L 1666.6 203.2 Q 1689.4 216.8 1701.6 241.4 L 1701.6 241.4 L 1701.6 241.4 Q 1713.8 266 1713.8 298.8 L 1713.8 298.8 L 1713.8 298.8 Q 1713.8 331.6 1701.6 356.2 L 1701.6 356.2 L 1701.6 356.2 Q 1689.4 380.8 1666.6 394.4 L 1666.6 394.4 L 1666.6 394.4 Q 1643.8 408 1613 408 L 1613 408 L 1613 408 Z  M 1613 371.6 L 1613 371.6 Q 1639.8 371.6 1653.8 352.2 L 1653.8 352.2 L 1653.8 352.2 Q 1667.8 332.8 1667.8 298.8 L 1667.8 298.8 L 1667.8 298.8 Q 1667.8 264.8 1653.8 245.4 L 1653.8 245.4 L 1653.8 245.4 Q 1639.8 226 1613 226 L 1613 226 L 1613 226 Q 1586.2 226 1572.4 245.4 L 1572.4 245.4 L 1572.4 245.4 Q 1558.6 264.8 1558.6 298.8 L 1558.6 298.8 L 1558.6 298.8 Q 1558.6 332.8 1572.4 352.2 L 1572.4 352.2 L 1572.4 352.2 Q 1586.2 371.6 1613 371.6 L 1613 371.6 L 1613 371.6 Z  M 1797 154.4 L 1797 154.4 Q 1785 154.4 1776.6 146.2 L 1776.6 146.2 L 1776.6 146.2 Q 1768.2 138 1768.2 125.6 L 1768.2 125.6 L 1768.2 125.6 Q 1768.2 112.8 1776.6 104.6 L 1776.6 104.6 L 1776.6 104.6 Q 1785 96.4 1797 96.4 L 1797 96.4 L 1797 96.4 Q 1809 96.4 1817.4 104.6 L 1817.4 104.6 L 1817.4 104.6 Q 1825.8 112.8 1825.8 125.6 L 1825.8 125.6 L 1825.8 125.6 Q 1825.8 138 1817.4 146.2 L 1817.4 146.2 L 1817.4 146.2 Q 1809 154.4 1797 154.4 L 1797 154.4 L 1797 154.4 Z  M 1775.4 194.4 L 1818.6 194.4 L 1818.6 403.2 L 1775.4 403.2 L 1775.4 194.4 L 1775.4 194.4 Z  M 2003.8 189.6 L 2003.8 189.6 Q 2034.2 189.6 2051.4 208 L 2051.4 208 L 2051.4 208 Q 2068.6 226.4 2068.6 258 L 2068.6 258 L 2068.6 403.2 L 2025.4 403.2 L 2025.4 274 L 2025.4 274 Q 2025.4 250.8 2017 239.4 L 2017 239.4 L 2017 239.4 Q 2008.6 228 1991 228 L 1991 228 L 1991 228 Q 1975.4 228 1962.8 234.2 L 1962.8 234.2 L 1962.8 234.2 Q 1950.2 240.4 1936.6 253.6 L 1936.6 253.6 L 1936.6 403.2 L 1893.4 403.2 L 1893.4 240.8 L 1884.6 194.4 L 1925.8 194.4 L 1932.2 222.4 L 1932.2 222.4 Q 1950.6 204.8 1966.6 197.2 L 1966.6 197.2 L 1966.6 197.2 Q 1982.6 189.6 2003.8 189.6 L 2003.8 189.6 L 2003.8 189.6 Z  M 2198.2 120 L 2198.2 194.4 L 2251.4 194.4 L 2251.4 228.8 L 2198.2 228.8 L 2198.2 340 L 2198.2 340 Q 2198.2 354.8 2204.4 363.2 L 2204.4 363.2 L 2204.4 363.2 Q 2210.6 371.6 2223 371.6 L 2223 371.6 L 2223 371.6 Q 2235.8 371.6 2251.8 364 L 2251.8 364 L 2251.8 400.8 L 2251.8 400.8 Q 2235 408 2213.8 408 L 2213.8 408 L 2213.8 408 Q 2185.4 408 2170.2 390.8 L 2170.2 390.8 L 2170.2 390.8 Q 2155 373.6 2155 342 L 2155 342 L 2155 228.8 L 2119.4 228.8 L 2119.4 194.4 L 2155 194.4 L 2155 138.4 L 2198.2 120 L 2198.2 120 Z  M 2365 408 L 2365 408 Q 2345.4 408 2326 402.2 L 2326 402.2 L 2326 402.2 Q 2306.6 396.4 2289.8 385.6 L 2289.8 385.6 L 2289.8 342.8 L 2289.8 342.8 Q 2308.6 357.2 2326 364 L 2326 364 L 2326 364 Q 2343.4 370.8 2362.6 370.8 L 2362.6 370.8 L 2362.6 370.8 Q 2383 370.8 2394.6 363.6 L 2394.6 363.6 L 2394.6 363.6 Q 2406.2 356.4 2406.2 344 L 2406.2 344 L 2406.2 344 Q 2406.2 331.2 2395.6 325.2 L 2395.6 325.2 L 2395.6 325.2 Q 2385 319.2 2362.2 313.2 L 2362.2 313.2 L 2362.2 313.2 Q 2340.2 307.6 2326.4 301.6 L 2326.4 301.6 L 2326.4 301.6 Q 2312.6 295.6 2302.6 283.6 L 2302.6 283.6 L 2302.6 283.6 Q 2292.6 271.6 2292.6 251.2 L 2292.6 251.2 L 2292.6 251.2 Q 2292.6 223.2 2314.8 206.4 L 2314.8 206.4 L 2314.8 206.4 Q 2337 189.6 2373.4 189.6 L 2373.4 189.6 L 2373.4 189.6 Q 2408.6 189.6 2437.8 207.6 L 2437.8 207.6 L 2437.8 249.2 L 2437.8 249.2 Q 2421.8 237.2 2407.2 232 L 2407.2 232 L 2407.2 232 Q 2392.6 226.8 2375.8 226.8 L 2375.8 226.8 L 2375.8 226.8 Q 2356.6 226.8 2345.8 232.8 L 2345.8 232.8 L 2345.8 232.8 Q 2335 238.8 2335 250 L 2335 250 L 2335 250 Q 2335 261.2 2345 266.6 L 2345 266.6 L 2345 266.6 Q 2355 272 2377.4 278 L 2377.4 278 L 2377.4 278 Q 2399.8 284 2413.8 289.8 L 2413.8 289.8 L 2413.8 289.8 Q 2427.8 295.6 2438 308.4 L 2438 308.4 L 2438 308.4 Q 2448.2 321.2 2448.2 342.4 L 2448.2 342.4 L 2448.2 342.4 Q 2448.2 361.6 2437.6 376.4 L 2437.6 376.4 L 2437.6 376.4 Q 2427 391.2 2408 399.6 L 2408 399.6 L 2408 399.6 Q 2389 408 2365 408 L 2365 408 L 2365 408 Z  M 2699.8 124.8 L 2743 124.8 L 2743 403.2 L 2699.8 403.2 L 2699.8 277.2 L 2558.2 277.2 L 2558.2 403.2 L 2515 403.2 L 2515 124.8 L 2558.2 124.8 L 2558.2 238 L 2699.8 238 L 2699.8 124.8 L 2699.8 124.8 Z  M 2999 403.2 L 2955.8 403.2 L 2950.6 375.6 L 2950.6 375.6 Q 2920.6 408 2878.6 408 L 2878.6 408 L 2878.6 408 Q 2849 408 2830.2 391.8 L 2830.2 391.8 L 2830.2 391.8 Q 2811.4 375.6 2811.4 348.8 L 2811.4 348.8 L 2811.4 348.8 Q 2811.4 314 2838.6 296.2 L 2838.6 296.2 L 2838.6 296.2 Q 2865.8 278.4 2911.8 278.4 L 2911.8 278.4 L 2911.8 278.4 Q 2930.6 278.4 2947 280 L 2947 280 L 2947 268.8 L 2947 268.8 Q 2947 248.8 2936 238 L 2936 238 L 2936 238 Q 2925 227.2 2905 227.2 L 2905 227.2 L 2905 227.2 Q 2883 227.2 2864.8 233.6 L 2864.8 233.6 L 2864.8 233.6 Q 2846.6 240 2826.6 254 L 2826.6 254 L 2826.6 214 L 2826.6 214 Q 2845 200.8 2864.8 195.2 L 2864.8 195.2 L 2864.8 195.2 Q 2884.6 189.6 2909.4 189.6 L 2909.4 189.6 L 2909.4 189.6 Q 2947 189.6 2968.6 209.4 L 2968.6 209.4 L 2968.6 209.4 Q 2990.2 229.2 2990.2 264 L 2990.2 264 L 2990.2 356.8 L 2999 403.2 L 2999 403.2 Z  M 2886.2 373.6 L 2886.2 373.6 Q 2903.4 373.6 2918 366.2 L 2918 366.2 L 2918 366.2 Q 2932.6 358.8 2947 344.4 L 2947 344.4 L 2947 310.4 L 2909.4 310.4 L 2909.4 310.4 Q 2884.2 310.4 2870.2 318.4 L 2870.2 318.4 L 2870.2 318.4 Q 2856.2 326.4 2856.2 345.6 L 2856.2 345.6 L 2856.2 345.6 Q 2856.2 358.8 2864.2 366.2 L 2864.2 366.2 L 2864.2 366.2 Q 2872.2 373.6 2886.2 373.6 L 2886.2 373.6 L 2886.2 373.6 Z  M 3146.2 408 L 3146.2 408 Q 3115 408 3092 394.4 L 3092 394.4 L 3092 394.4 Q 3069 380.8 3056.6 356.2 L 3056.6 356.2 L 3056.6 356.2 Q 3044.2 331.6 3044.2 299.6 L 3044.2 299.6 L 3044.2 299.6 Q 3044.2 267.2 3056.8 242.4 L 3056.8 242.4 L 3056.8 242.4 Q 3069.4 217.6 3092.4 203.6 L 3092.4 203.6 L 3092.4 203.6 Q 3115.4 189.6 3146.2 189.6 L 3146.2 189.6 L 3146.2 189.6 Q 3185.8 189.6 3209.8 207.6 L 3209.8 207.6 L 3209.8 247.2 L 3208.2 247.2 L 3208.2 247.2 Q 3181.8 227.6 3147 227.6 L 3147 227.6 L 3147 227.6 Q 3119 227.6 3104.2 247.2 L 3104.2 247.2 L 3104.2 247.2 Q 3089.4 266.8 3089.4 300 L 3089.4 300 L 3089.4 300 Q 3089.4 332.4 3104 351.2 L 3104 351.2 L 3104 351.2 Q 3118.6 370 3146.6 370 L 3146.6 370 L 3146.6 370 Q 3181.4 370 3210.6 346.8 L 3210.6 346.8 L 3212.2 346.8 L 3212.2 386.8 L 3212.2 386.8 Q 3186.6 408 3146.2 408 L 3146.2 408 L 3146.2 408 Z  M 3407 403.2 L 3349 310 L 3320.6 342 L 3320.6 403.2 L 3277.4 403.2 L 3277.4 101.6 L 3320.6 101.6 L 3320.6 288.4 L 3403.4 194.4 L 3453.4 194.4 L 3377 279.2 L 3458.2 403.2 L 3407 403.2 L 3407 403.2 Z " fill-rule="evenodd" fill="rgb(255,255,255)"/></g></svg>